# xmcd
#
# Track frame offsets: 
#        150
#        20374
#        37775
#        48987
#        61642
#        74188
#        89549
#        106790
#        123842
#        138041
#
# Disc length: 1999 seconds
#
# Revision: 0
# Processed by: cddbd v1.5.1PL2 Copyright (c) Steve Scherf et al.
# Submitted via: ExactAudioCopy v0.95b4
#
DISCID=7907cd0a
DTITLE=Royal Flush - 1979-02-xx - Rehearsal - Dallastown PA
DYEAR=1979
DGENRE=Rock
TTITLE0=Train Kept A-Rollin'
TTITLE1=Jumping Jack Flash
TTITLE2=Back In The USSR
TTITLE3=Cocaine
TTITLE4=Tush
TTITLE5=Straight On
TTITLE6=Rock And Roll
TTITLE7=Space Trucking
TTITLE8=Summer Breeze
TTITLE9=Led Boots
EXTD=
EXTT0=
EXTT1=
EXTT2=
EXTT3=
EXTT4=
EXTT5=
EXTT6=
EXTT7=
EXTT8=
EXTT9=
PLAYORDER=
